<svg width="320" height="240" viewBox="0 0 320 240" fill="none" xmlns="http://www.w3.org/2000/svg">
<rect width="320" height="240" rx="24" fill="#0f172a"/>
<circle cx="150" cy="120" r="70" fill="#38bdf8" opacity="0.18"/>
<path d="M150 60C150 60 180 100 180 135C180 160 165 180 150 180C135 180 120 160 120 135C120 100 150 60 150 60Z" fill="#0ea5e9"/>
<path d="M144 120C144 114 150 110 156 111C162 112 166 118 165 124C164 130 158 134 152 133C148 132 144 126 144 120Z" fill="#e0f2fe"/>
<rect x="100" y="186" width="100" height="8" rx="4" fill="#1f2937"/>
<rect x="124" y="194" width="52" height="8" rx="4" fill="#111827"/>
</svg>
